<svg width="37" height="37" viewBox="0 0 25 24" fill="none" xmlns="http://www.w3.org/2000/svg">
<path d="M21.3472 14.8554L16.9306 12.8764L16.9184 12.8707C16.6892 12.7727 16.439 12.7333 16.1907 12.7562C15.9424 12.7792 15.7037 12.8636 15.4963 13.002C15.4718 13.0181 15.4484 13.0357 15.4259 13.0545L13.1441 14.9998C11.6984 14.2976 10.2059 12.8164 9.50376 11.3895L11.4519 9.07294C11.4706 9.0495 11.4884 9.02606 11.5053 9.00075C11.6407 8.79384 11.7229 8.55667 11.7445 8.31035C11.7661 8.06402 11.7264 7.81618 11.6291 7.58887V7.57762L9.64438 3.15356C9.5157 2.85662 9.29444 2.60926 9.01362 2.44841C8.7328 2.28756 8.4075 2.22184 8.08626 2.26106C6.81592 2.42822 5.64986 3.05209 4.80588 4.01615C3.9619 4.98021 3.49771 6.21852 3.50001 7.49981C3.50001 14.9436 9.55626 20.9998 17 20.9998C18.2813 21.0021 19.5196 20.5379 20.4837 19.6939C21.4477 18.85 22.0716 17.6839 22.2388 16.4136C22.2781 16.0924 22.2125 15.7672 22.0518 15.4864C21.8911 15.2056 21.644 14.9843 21.3472 14.8554ZM17 19.4998C13.8185 19.4963 10.7682 18.2309 8.51856 15.9813C6.26888 13.7316 5.00348 10.6813 5.00001 7.49981C4.99648 6.58433 5.32631 5.69887 5.92789 5.00879C6.52947 4.3187 7.36167 3.87118 8.26907 3.74981C8.2687 3.75355 8.2687 3.75732 8.26907 3.76106L10.2378 8.16731L8.30001 10.4867C8.28034 10.5093 8.26247 10.5335 8.24657 10.5589C8.10549 10.7754 8.02273 11.0246 8.0063 11.2825C7.98988 11.5404 8.04035 11.7981 8.15282 12.0307C9.0022 13.7679 10.7525 15.5051 12.5084 16.3536C12.7428 16.465 13.002 16.5137 13.2608 16.495C13.5196 16.4762 13.7692 16.3907 13.985 16.2467C14.0091 16.2305 14.0322 16.2129 14.0544 16.1942L16.3334 14.2498L20.7397 16.2232H20.75C20.6301 17.1319 20.1833 17.9658 19.4931 18.5689C18.8028 19.172 17.9166 19.5029 17 19.4998Z" fill="#FFFFFF"/>
</svg>
