<svg width="37" height="37" viewBox="0 0 37 37" fill="none" xmlns="http://www.w3.org/2000/svg">
<path d="M12.5215 32.1665C14.3159 33.6522 16.4754 34.5988 18.9508 34.7612C20.9012 34.8891 22.9374 34.8889 24.8838 34.7612C25.5541 34.7172 26.2846 34.5594 26.9138 34.3036C27.6138 34.0192 27.964 33.8768 28.1419 33.8984C28.3198 33.92 28.5779 34.1078 29.0941 34.4835C30.0043 35.1459 31.151 35.6216 32.8514 35.5807C33.7113 35.5601 34.1412 35.5497 34.3337 35.2259C34.5262 34.9021 34.2865 34.4538 33.807 33.5572C33.1421 32.3137 32.7208 30.8902 33.3592 29.7496C34.4586 28.1204 35.3925 26.1909 35.529 24.1071C35.6023 22.9874 35.6023 21.8278 35.529 20.7082C35.4381 19.3197 35.101 17.9997 34.561 16.7915" stroke="#FBFAFA" stroke-width="1.5" stroke-linecap="round" stroke-linejoin="round"/>
<path d="M19.0897 27.8731C25.1638 27.473 30.0021 22.6117 30.4002 16.5086C30.4781 15.3143 30.4781 14.0775 30.4002 12.8832C30.0021 6.78013 25.1638 1.91877 19.0897 1.51875C17.0175 1.38228 14.8539 1.38256 12.7859 1.51875C6.71185 1.91877 1.87354 6.78013 1.47542 12.8832C1.39751 14.0775 1.39751 15.3143 1.47542 16.5086C1.62042 18.7314 2.61268 20.7895 3.78085 22.5273C4.45912 23.744 4.01149 25.2625 3.30501 26.5888C2.79561 27.5451 2.54092 28.0233 2.74542 28.3688C2.94992 28.7142 3.40672 28.7252 4.32032 28.7472C6.12707 28.7908 7.34539 28.2834 8.31247 27.5769C8.86096 27.1761 9.1352 26.9758 9.32422 26.9528C9.51323 26.9297 9.8852 27.0815 10.629 27.385C11.2976 27.6578 12.0738 27.8262 12.7859 27.8731C14.8539 28.0092 17.0175 28.0095 19.0897 27.8731Z" stroke="#FBFAFA" stroke-width="1.5" stroke-linejoin="round"/>
</svg>
