<svg width="37" height="37" viewBox="0 0 25 24" fill="none" xmlns="http://www.w3.org/2000/svg">
<path d="M12.5 16C13.5609 16 14.5783 15.5786 15.3284 14.8284C16.0786 14.0783 16.5 13.0609 16.5 12C16.5 10.9391 16.0786 9.92172 15.3284 9.17157C14.5783 8.42143 13.5609 8 12.5 8C11.4391 8 10.4217 8.42143 9.67157 9.17157C8.92143 9.92172 8.5 10.9391 8.5 12C8.5 13.0609 8.92143 14.0783 9.67157 14.8284C10.4217 15.5786 11.4391 16 12.5 16Z" stroke="#FFFFFF" stroke-width="1.5" stroke-linecap="round" stroke-linejoin="round"/>
<path d="M3.5 16V8C3.5 6.67392 4.02678 5.40215 4.96447 4.46447C5.90215 3.52678 7.17392 3 8.5 3H16.5C17.8261 3 19.0979 3.52678 20.0355 4.46447C20.9732 5.40215 21.5 6.67392 21.5 8V16C21.5 17.3261 20.9732 18.5979 20.0355 19.5355C19.0979 20.4732 17.8261 21 16.5 21H8.5C7.17392 21 5.90215 20.4732 4.96447 19.5355C4.02678 18.5979 3.5 17.3261 3.5 16Z" stroke="#FFFFFF" stroke-width="1.5"/>
<path d="M18 6.50905L18.01 6.49805" stroke="#FFFFFF" stroke-width="1.5" stroke-linecap="round" stroke-linejoin="round"/>
</svg>
