<svg width="22" height="24" viewBox="0 0 22 24" fill="none" xmlns="http://www.w3.org/2000/svg">
<path d="M5.75 0.733398C5.94891 0.733398 6.13968 0.812416 6.28033 0.953068C6.42098 1.09372 6.5 1.28449 6.5 1.4834V3.7334H15.5V1.4834C15.5 1.28449 15.579 1.09372 15.7197 0.953068C15.8603 0.812416 16.0511 0.733398 16.25 0.733398C16.4489 0.733398 16.6397 0.812416 16.7803 0.953068C16.921 1.09372 17 1.28449 17 1.4834V3.7334H19.75C20.716 3.7334 21.5 4.5174 21.5 5.4834V21.4834C21.5 21.9475 21.3156 22.3926 20.9874 22.7208C20.6592 23.049 20.2141 23.2334 19.75 23.2334H2.25C1.78587 23.2334 1.34075 23.049 1.01256 22.7208C0.684375 22.3926 0.5 21.9475 0.5 21.4834V5.4834C0.5 4.5174 1.284 3.7334 2.25 3.7334H5V1.4834C5 1.28449 5.07902 1.09372 5.21967 0.953068C5.36032 0.812416 5.55109 0.733398 5.75 0.733398ZM20 10.2334H2V21.4834C2 21.6214 2.112 21.7334 2.25 21.7334H19.75C19.8163 21.7334 19.8799 21.7071 19.9268 21.6602C19.9737 21.6133 20 21.5497 20 21.4834V10.2334ZM2.25 5.2334C2.1837 5.2334 2.12011 5.25974 2.07322 5.30662C2.02634 5.35351 2 5.41709 2 5.4834V8.7334H20V5.4834C20 5.41709 19.9737 5.35351 19.9268 5.30662C19.8799 5.25974 19.8163 5.2334 19.75 5.2334H2.25Z" fill="#888888"/>
</svg>
