<svg width="128" height="132" viewBox="0 0 128 132" fill="none" xmlns="http://www.w3.org/2000/svg">
<path d="M48.7635 53.7544C46.7095 53.7544 44.6738 53.6138 42.7703 53.0533C35.9146 51.0277 30.9333 44.9651 29.3663 38.1123C27.7992 31.2283 29.5927 23.6901 34.4171 18.476C38.8802 13.6547 44.1682 12.6557 50.3818 12.6557C50.4458 12.6557 50.5554 12.6602 50.6961 12.666C50.7715 12.6691 50.8557 12.6726 50.9467 12.6759C51.2062 12.6854 51.5176 12.6938 51.8231 12.6889C52.1282 12.684 52.4296 12.6659 52.6685 12.6219C52.7878 12.5999 52.8938 12.5711 52.9776 12.533C53.0602 12.4955 53.1285 12.4457 53.1614 12.3773L53.1617 12.3768C53.1673 12.3647 53.1689 12.3508 53.1651 12.337C53.1617 12.3243 53.1547 12.3153 53.149 12.3095C53.1384 12.2988 53.1249 12.292 53.1146 12.2876C53.0926 12.2781 53.0617 12.2699 53.0258 12.2623C52.953 12.247 52.8474 12.232 52.7211 12.2175C52.468 12.1884 52.1258 12.1607 51.7818 12.1368C51.0948 12.089 50.3956 12.0556 50.3818 12.0556C49.8684 12.0556 49.3544 12.0531 48.8403 12.0506C43.3109 12.0237 37.7654 11.9967 32.8693 15.0792L32.8693 15.0792C25.2395 19.8889 21.8264 29.4668 23.8074 38.1267C25.6398 46.169 32.0147 52.6316 40.2563 53.8773C43.7753 54.4089 47.4496 54.3301 51.0612 54.2527C52.3381 54.2254 53.6071 54.1982 54.8587 54.1982C54.9228 54.1982 55.0324 54.2027 55.1731 54.2085C55.2485 54.2116 55.3327 54.2151 55.4237 54.2184C55.6832 54.2279 55.9945 54.2363 56.3 54.2314C56.6051 54.2265 56.9065 54.2084 57.1454 54.1644C57.2647 54.1424 57.3707 54.1136 57.4545 54.0756C57.5316 54.0405 57.5962 53.9948 57.6313 53.9333L57.6386 53.9349C57.6435 53.9245 57.6453 53.9127 57.6433 53.9008V53.8982L57.6428 53.898C57.6426 53.8971 57.6423 53.8961 57.642 53.8951C57.6386 53.8825 57.6316 53.8734 57.626 53.8677C57.6154 53.8569 57.6019 53.8501 57.5916 53.8457C57.5695 53.8363 57.5386 53.828 57.5028 53.8205C57.4299 53.8051 57.3244 53.7901 57.1981 53.7756C56.945 53.7465 56.6027 53.7189 56.2588 53.6949C55.5717 53.6471 54.8725 53.6138 54.8587 53.6138C53.884 53.6138 52.8846 53.6482 51.8754 53.683L51.8419 53.6841C50.8211 53.7193 49.7904 53.7544 48.7635 53.7544Z" fill="#191919" stroke="#191919" stroke-width="0.1"/>
<path d="M67.5189 95.7265V12.3164C67.5189 12.2892 67.5065 12.2668 67.4911 12.25C67.4761 12.2335 67.4562 12.2201 67.4347 12.2088C67.3917 12.1861 67.3317 12.1663 67.2597 12.1486C67.1148 12.1129 66.9087 12.0826 66.6611 12.0565C66.1651 12.0043 65.4942 11.9686 64.7927 11.9442C63.3893 11.8953 61.8592 11.8914 61.3512 11.8914C61.0291 11.8914 60.3438 11.9208 59.7389 11.9786C59.4366 12.0074 59.1527 12.0435 58.9436 12.0869C58.8395 12.1085 58.7514 12.1325 58.6883 12.1593C58.6569 12.1727 58.6288 12.1879 58.6077 12.2061C58.587 12.2239 58.5666 12.2502 58.5666 12.2852C58.5666 12.3086 58.5788 12.3258 58.5897 12.3362C58.6004 12.3465 58.6135 12.3538 58.6257 12.3594C58.6504 12.3706 58.6835 12.3798 58.7214 12.3876C58.7981 12.4035 58.9066 12.4166 59.0367 12.4274C59.2975 12.4492 59.652 12.4626 60.0287 12.4709C60.6771 12.4852 61.3942 12.4843 61.818 12.4838C61.8658 12.4837 61.9099 12.4837 61.9497 12.4837V95.7265H60.1792C60.1152 95.7265 60.0055 95.722 59.8648 95.7162C59.7895 95.7131 59.7052 95.7096 59.6143 95.7063C59.3548 95.6967 59.0434 95.6884 58.7379 95.6933C58.4328 95.6982 58.1314 95.7163 57.8925 95.7603C57.7732 95.7822 57.6672 95.8111 57.5835 95.8491C57.5008 95.8867 57.4325 95.9365 57.3996 96.0048H57.3996L57.3993 96.0054C57.3937 96.0174 57.3921 96.0314 57.3959 96.0452C57.3993 96.0578 57.4063 96.0669 57.412 96.0726C57.4226 96.0834 57.4361 96.0902 57.4464 96.0946C57.4684 96.104 57.4994 96.1123 57.5352 96.1198C57.608 96.1352 57.7136 96.1502 57.8399 96.1647C58.093 96.1938 58.4352 96.2214 58.7792 96.2454C59.4662 96.2932 60.1654 96.3265 60.1792 96.3265H74.3601C75.3645 96.3265 76.3875 96.347 77.4201 96.3676C81.0801 96.4408 84.8612 96.5164 88.3649 95.6923L88.3535 95.6437L88.365 95.6923C97.434 93.5494 102.541 85.7949 103.402 77.4989C104.264 69.2035 100.88 60.3547 92.956 56.0184L92.9543 56.0175L92.9403 56.0106C92.9401 56.0104 92.9398 56.0103 92.9395 56.0101C90.1182 54.4664 87.0282 53.8679 83.8721 53.6548C81.6843 53.507 79.4613 53.5444 77.2735 53.5812C76.3065 53.5975 75.3464 53.6136 74.3992 53.6136C74.3351 53.6136 74.2255 53.6091 74.0847 53.6033C74.0094 53.6002 73.9251 53.5967 73.8342 53.5934C73.5747 53.5839 73.2634 53.5755 72.9578 53.5804C72.6528 53.5853 72.3513 53.6034 72.1125 53.6474C71.9931 53.6694 71.8872 53.6982 71.8034 53.7362C71.7207 53.7738 71.6524 53.8236 71.6195 53.8919L71.6193 53.8925C71.6136 53.9045 71.6121 53.9185 71.6158 53.9323C71.6193 53.945 71.6263 53.954 71.6319 53.9597C71.6425 53.9705 71.656 53.9773 71.6663 53.9817C71.6883 53.9912 71.7193 53.9994 71.7551 54.007C71.8279 54.0223 71.9335 54.0373 72.0598 54.0518C72.3129 54.0809 72.6552 54.1085 72.9991 54.1325C73.6861 54.1803 74.3854 54.2137 74.3992 54.2137C75.1848 54.2137 75.9849 54.1861 76.7884 54.1585C77.1963 54.1445 77.605 54.1304 78.0131 54.1199C79.2264 54.0886 80.4368 54.0887 81.6133 54.2134C86.2768 54.7117 90.633 57.6402 93.4865 61.2577C99.5432 68.9514 99.6525 80.443 93.7904 88.2772C90.9601 92.0587 86.4869 95.2285 81.6759 95.7268C80.3939 95.857 79.0587 95.8131 77.7361 95.7696C77.079 95.748 76.425 95.7265 75.7821 95.7265H67.5189Z" fill="#191919" stroke="#191919" stroke-width="0.1"/>
<path d="M121.413 122.728L123.64 117.396C123.96 116.614 124.12 116.181 124.12 116.095C124.12 115.704 123.687 115.501 122.819 115.485V114.946H126.194V115.485C125.671 115.509 125.288 115.649 125.046 115.907C124.804 116.157 124.503 116.716 124.144 117.583L119.866 127.907C119.46 128.892 119.101 129.56 118.788 129.911C118.476 130.271 118.132 130.45 117.757 130.45C117.249 130.45 116.995 130.22 116.995 129.759C116.995 129.228 117.401 128.778 118.214 128.411C118.69 128.2 119.007 128.021 119.163 127.872C119.327 127.724 119.487 127.454 119.644 127.063L120.558 124.778L116.948 117.044C116.628 116.364 116.362 115.935 116.151 115.755C115.94 115.575 115.581 115.485 115.073 115.485V114.946H119.479V115.485C118.706 115.509 118.319 115.669 118.319 115.966C118.319 116.083 118.472 116.466 118.776 117.114L121.413 122.728Z" fill="#191919"/>
<path d="M114.769 115.485H111.874V121.286C111.874 122.177 111.913 122.778 111.991 123.091C112.069 123.396 112.233 123.642 112.483 123.829C112.741 124.017 113.015 124.11 113.304 124.11C113.866 124.11 114.354 123.79 114.769 123.149L115.144 123.372C114.901 123.888 114.542 124.278 114.065 124.544C113.597 124.802 113.12 124.931 112.636 124.931C112.073 124.931 111.577 124.767 111.147 124.438C110.726 124.103 110.46 123.712 110.351 123.267C110.249 122.821 110.198 122.04 110.198 120.923V115.485H108.804V114.946C109.444 114.931 110.019 114.661 110.526 114.138C111.034 113.614 111.358 112.88 111.499 111.935H111.874V114.946H114.769V115.485Z" fill="#191919"/>
<path d="M106.097 114.946V121.239C106.097 122.286 106.112 122.942 106.144 123.208C106.175 123.474 106.288 123.673 106.483 123.806C106.687 123.938 107.046 124.005 107.562 124.005V124.544C106.374 124.56 105.507 124.685 104.96 124.919H104.819C104.569 124.489 104.437 123.747 104.421 122.692C103.944 123.435 103.397 123.993 102.78 124.368C102.171 124.743 101.495 124.931 100.753 124.931C100.112 124.931 99.5459 124.786 99.0537 124.497C98.5615 124.2 98.2217 123.841 98.0342 123.419C97.8545 122.997 97.7646 122.36 97.7646 121.509V118.239C97.7646 117.13 97.7451 116.454 97.7061 116.212C97.667 115.962 97.542 115.778 97.3311 115.661C97.1279 115.544 96.749 115.485 96.1943 115.485V114.946H99.4521V121.603C99.4521 122.259 99.4912 122.735 99.5693 123.032C99.6475 123.329 99.8467 123.591 100.167 123.817C100.487 124.036 100.858 124.146 101.28 124.146C101.882 124.146 102.456 123.95 103.003 123.56C103.55 123.161 103.921 122.743 104.116 122.306C104.319 121.86 104.421 121.228 104.421 120.407V118.239C104.421 117.192 104.409 116.556 104.386 116.329C104.362 116.103 104.261 115.907 104.081 115.743C103.909 115.571 103.546 115.485 102.991 115.485H102.745V114.946H106.097Z" fill="#191919"/>
<path d="M94.9873 122.786H95.4209C95.3506 124.122 94.6943 124.79 93.4521 124.79C92.9209 124.79 92.499 124.649 92.1865 124.368C91.8818 124.087 91.6826 123.669 91.5889 123.114C90.8076 123.669 90.0928 124.087 89.4443 124.368C88.8037 124.649 88.2295 124.79 87.7217 124.79C87.0732 124.79 86.5146 124.603 86.0459 124.228C85.5771 123.853 85.3428 123.356 85.3428 122.739C85.3428 121.935 85.7334 121.231 86.5146 120.63C87.3037 120.028 88.3896 119.442 89.7725 118.872L91.5889 118.134V117.665C91.5889 117.001 91.5459 116.521 91.46 116.224C91.374 115.927 91.1514 115.661 90.792 115.427C90.4326 115.192 89.96 115.075 89.374 115.075C88.2021 115.075 87.5498 115.466 87.417 116.247C87.292 117.044 86.9639 117.442 86.4326 117.442C85.9561 117.442 85.7178 117.216 85.7178 116.763C85.7178 116.317 86.0342 115.841 86.667 115.333C87.2998 114.817 88.2842 114.56 89.6201 114.56C90.6123 114.56 91.3818 114.716 91.9287 115.028C92.4756 115.341 92.835 115.696 93.0068 116.095C93.1865 116.493 93.2764 117.103 93.2764 117.923V121.802C93.2764 122.708 93.3232 123.29 93.417 123.548C93.5107 123.806 93.7139 123.935 94.0264 123.935C94.542 123.935 94.8623 123.552 94.9873 122.786ZM91.5889 118.685L90.3115 119.2C88.2959 120.021 87.2881 121.052 87.2881 122.294C87.2881 122.786 87.417 123.185 87.6748 123.489C87.9326 123.786 88.2686 123.935 88.6826 123.935C89.0498 123.935 89.4756 123.813 89.96 123.571C90.4443 123.329 90.9873 122.966 91.5889 122.481V118.685Z" fill="#191919"/>
<path d="M83.5029 118.192H76.8115C76.7803 118.653 76.7646 118.997 76.7646 119.224C76.7646 120.911 77.0264 122.181 77.5498 123.032C78.0811 123.876 78.8701 124.298 79.917 124.298C81.3389 124.298 82.3467 123.661 82.9404 122.388H83.5029C83.2529 123.185 82.7568 123.81 82.0146 124.263C81.2725 124.708 80.4639 124.931 79.5889 124.931C78.7764 124.931 78.0068 124.728 77.2803 124.321C76.5615 123.907 75.9717 123.325 75.5107 122.575C75.0498 121.825 74.8193 120.915 74.8193 119.845C74.8193 118.329 75.2646 117.071 76.1553 116.071C77.0459 115.063 78.1592 114.56 79.4951 114.56C80.7529 114.56 81.7256 114.942 82.4131 115.708C83.1006 116.474 83.4639 117.302 83.5029 118.192ZM81.4521 117.724C81.4756 117.544 81.4873 117.384 81.4873 117.243C81.4873 116.556 81.2842 116.024 80.8779 115.649C80.4795 115.267 79.9873 115.075 79.4014 115.075C77.9795 115.075 77.1318 115.958 76.8584 117.724H81.4521Z" fill="#191919"/>
<path d="M67.5068 115.989C69.3115 116.122 70.6514 116.571 71.5264 117.337C72.4014 118.103 72.8389 119.06 72.8389 120.208C72.8389 121.208 72.542 122.071 71.9482 122.798C71.3545 123.517 70.5928 123.989 69.6631 124.216C68.7412 124.435 67.5029 124.544 65.9482 124.544H59.7139V124.005H60.3232C61.0029 124.005 61.4717 123.919 61.7295 123.747C61.9951 123.575 62.1631 123.31 62.2334 122.95C62.3037 122.583 62.3389 121.735 62.3389 120.407V112.673C62.3389 111.384 62.2998 110.552 62.2217 110.177C62.1514 109.802 61.9951 109.544 61.7529 109.403C61.5186 109.263 60.999 109.192 60.1943 109.192H59.8896V108.653L62.5029 108.583L65.4795 108.489C69.8232 108.489 71.9951 109.739 71.9951 112.239C71.9951 113.271 71.6201 114.099 70.8701 114.724C70.1279 115.349 69.0068 115.771 67.5068 115.989ZM64.6357 115.767C64.8311 115.774 64.9951 115.778 65.1279 115.778C66.8154 115.778 67.9678 115.513 68.585 114.981C69.2021 114.45 69.5107 113.591 69.5107 112.403C69.5107 111.575 69.3896 110.935 69.1475 110.481C68.9053 110.028 68.542 109.681 68.0576 109.438C67.5732 109.188 66.7451 109.063 65.5732 109.063C65.2686 109.063 64.9561 109.075 64.6357 109.099V115.767ZM64.6357 116.341V119.88C64.6357 121.388 64.6631 122.345 64.7178 122.751C64.7725 123.157 64.917 123.466 65.1514 123.677C65.3936 123.888 65.8662 123.993 66.5693 123.993C67.8193 123.993 68.7568 123.673 69.3818 123.032C70.0068 122.392 70.3193 121.431 70.3193 120.149C70.3193 118.837 69.9639 117.872 69.2529 117.255C68.5498 116.63 67.3076 116.317 65.5264 116.317C65.2451 116.317 64.9482 116.325 64.6357 116.341Z" fill="#191919"/>
<path d="M52.4717 122.786H52.9053C52.835 124.122 52.1787 124.79 50.9365 124.79C50.4053 124.79 49.9834 124.649 49.6709 124.368C49.3662 124.087 49.167 123.669 49.0732 123.114C48.292 123.669 47.5771 124.087 46.9287 124.368C46.2881 124.649 45.7139 124.79 45.2061 124.79C44.5576 124.79 43.999 124.603 43.5303 124.228C43.0615 123.853 42.8271 123.356 42.8271 122.739C42.8271 121.935 43.2178 121.231 43.999 120.63C44.7881 120.028 45.874 119.442 47.2568 118.872L49.0732 118.134V117.665C49.0732 117.001 49.0303 116.521 48.9443 116.224C48.8584 115.927 48.6357 115.661 48.2764 115.427C47.917 115.192 47.4443 115.075 46.8584 115.075C45.6865 115.075 45.0342 115.466 44.9014 116.247C44.7764 117.044 44.4482 117.442 43.917 117.442C43.4404 117.442 43.2021 117.216 43.2021 116.763C43.2021 116.317 43.5186 115.841 44.1514 115.333C44.7842 114.817 45.7686 114.56 47.1045 114.56C48.0967 114.56 48.8662 114.716 49.4131 115.028C49.96 115.341 50.3193 115.696 50.4912 116.095C50.6709 116.493 50.7607 117.103 50.7607 117.923V121.802C50.7607 122.708 50.8076 123.29 50.9014 123.548C50.9951 123.806 51.1982 123.935 51.5107 123.935C52.0264 123.935 52.3467 123.552 52.4717 122.786ZM49.0732 118.685L47.7959 119.2C45.7803 120.021 44.7725 121.052 44.7725 122.294C44.7725 122.786 44.9014 123.185 45.1592 123.489C45.417 123.786 45.7529 123.935 46.167 123.935C46.5342 123.935 46.96 123.813 47.4443 123.571C47.9287 123.329 48.4717 122.966 49.0732 122.481V118.685Z" fill="#191919"/>
<path d="M39.8154 108.431V121.251C39.8154 122.274 39.8271 122.919 39.8506 123.185C39.8818 123.45 39.9951 123.653 40.1904 123.794C40.3857 123.935 40.7334 124.005 41.2334 124.005H41.5146V124.544H36.3818V124.005H36.71C37.1787 124.005 37.5107 123.942 37.7061 123.817C37.9092 123.685 38.0303 123.501 38.0693 123.267C38.1084 123.032 38.1279 122.36 38.1279 121.251V111.759C38.1279 110.751 38.0381 110.118 37.8584 109.86C37.6787 109.595 37.2412 109.462 36.5459 109.462V108.923C37.0225 108.923 37.5811 108.868 38.2217 108.759C38.8701 108.649 39.3154 108.54 39.5576 108.431H39.8154Z" fill="#191919"/>
<path d="M31.8584 117.009C32.124 116.313 32.5537 115.731 33.1475 115.263C33.749 114.794 34.335 114.56 34.9053 114.56C35.4209 114.56 35.8271 114.72 36.124 115.04C36.4209 115.36 36.5693 115.688 36.5693 116.024C36.5693 116.251 36.4912 116.446 36.335 116.61C36.1865 116.774 36.0029 116.856 35.7842 116.856C35.3936 116.856 35.0967 116.567 34.8936 115.989C34.7529 115.599 34.542 115.403 34.2607 115.403C33.9248 115.403 33.5225 115.634 33.0537 116.095C32.585 116.548 32.2842 117.021 32.1514 117.513C32.0186 118.005 31.9521 118.681 31.9521 119.54V121.251C31.9521 122.274 31.9639 122.919 31.9873 123.185C32.0186 123.45 32.1318 123.653 32.3271 123.794C32.5225 123.935 32.8701 124.005 33.3701 124.005H33.6982V124.544H28.6006V124.005H28.8467C29.3154 124.005 29.6475 123.942 29.8428 123.817C30.0459 123.685 30.167 123.501 30.2061 123.267C30.2451 123.032 30.2646 122.36 30.2646 121.251V118.544C30.2646 117.513 30.249 116.868 30.2178 116.61C30.1943 116.345 30.085 116.142 29.8896 116.001C29.6943 115.853 29.3467 115.778 28.8467 115.778H28.6006V115.251C29.335 115.165 30.2959 114.935 31.4834 114.56C31.71 115.177 31.835 115.993 31.8584 117.009Z" fill="#191919"/>
<path d="M27.1826 122.786H27.6162C27.5459 124.122 26.8896 124.79 25.6475 124.79C25.1162 124.79 24.6943 124.649 24.3818 124.368C24.0771 124.087 23.8779 123.669 23.7842 123.114C23.0029 123.669 22.2881 124.087 21.6396 124.368C20.999 124.649 20.4248 124.79 19.917 124.79C19.2686 124.79 18.71 124.603 18.2412 124.228C17.7725 123.853 17.5381 123.356 17.5381 122.739C17.5381 121.935 17.9287 121.231 18.71 120.63C19.499 120.028 20.585 119.442 21.9678 118.872L23.7842 118.134V117.665C23.7842 117.001 23.7412 116.521 23.6553 116.224C23.5693 115.927 23.3467 115.661 22.9873 115.427C22.6279 115.192 22.1553 115.075 21.5693 115.075C20.3975 115.075 19.7451 115.466 19.6123 116.247C19.4873 117.044 19.1592 117.442 18.6279 117.442C18.1514 117.442 17.9131 117.216 17.9131 116.763C17.9131 116.317 18.2295 115.841 18.8623 115.333C19.4951 114.817 20.4795 114.56 21.8154 114.56C22.8076 114.56 23.5771 114.716 24.124 115.028C24.6709 115.341 25.0303 115.696 25.2021 116.095C25.3818 116.493 25.4717 117.103 25.4717 117.923V121.802C25.4717 122.708 25.5186 123.29 25.6123 123.548C25.7061 123.806 25.9092 123.935 26.2217 123.935C26.7373 123.935 27.0576 123.552 27.1826 122.786ZM23.7842 118.685L22.5068 119.2C20.4912 120.021 19.4834 121.052 19.4834 122.294C19.4834 122.786 19.6123 123.185 19.8701 123.489C20.1279 123.786 20.4639 123.935 20.8779 123.935C21.2451 123.935 21.6709 123.813 22.1553 123.571C22.6396 123.329 23.1826 122.966 23.7842 122.481V118.685Z" fill="#191919"/>
<path d="M14.5264 118.579H15.0303V124.146H14.5264C14.3857 123.513 14.1318 122.954 13.7646 122.47C12.3662 124.048 10.5811 124.837 8.40918 124.837C6.1123 124.837 4.2334 124.11 2.77246 122.657C1.31934 121.204 0.592773 119.282 0.592773 116.892C0.592773 115.321 0.928711 113.845 1.60059 112.462C2.27246 111.071 3.20996 110.04 4.41309 109.368C5.61621 108.696 6.93652 108.36 8.37402 108.36C9.56152 108.36 10.6357 108.606 11.5967 109.099C12.5654 109.583 13.2881 110.122 13.7646 110.716C14.1006 110.052 14.3037 109.364 14.374 108.653H14.8896L15.0303 114.677H14.5264C14.1748 112.536 13.4561 111.048 12.3701 110.212C11.292 109.376 10.0732 108.958 8.71387 108.958C7.0498 108.958 5.72559 109.634 4.74121 110.985C3.76465 112.337 3.27637 114.271 3.27637 116.786C3.27637 119.169 3.81152 120.997 4.88184 122.271C5.95215 123.536 7.28418 124.169 8.87793 124.169C9.72949 124.169 10.6006 123.962 11.4912 123.548C12.3818 123.134 13.085 122.435 13.6006 121.45C14.124 120.458 14.4326 119.501 14.5264 118.579Z" fill="#191919"/>
</svg>
