<svg width="25" height="24" viewBox="0 0 25 24" fill="none" xmlns="http://www.w3.org/2000/svg">
<path d="M12.0928 16C13.1536 16 14.1711 15.5786 14.9212 14.8284C15.6713 14.0783 16.0928 13.0609 16.0928 12C16.0928 10.9391 15.6713 9.92172 14.9212 9.17157C14.1711 8.42143 13.1536 8 12.0928 8C11.0319 8 10.0145 8.42143 9.26435 9.17157C8.5142 9.92172 8.09277 10.9391 8.09277 12C8.09277 13.0609 8.5142 14.0783 9.26435 14.8284C10.0145 15.5786 11.0319 16 12.0928 16Z" stroke="#725A58" stroke-width="1.5" stroke-linecap="round" stroke-linejoin="round"/>
<path d="M3.09277 16V8C3.09277 6.67392 3.61956 5.40215 4.55724 4.46447C5.49492 3.52678 6.76669 3 8.09277 3H16.0928C17.4189 3 18.6906 3.52678 19.6283 4.46447C20.566 5.40215 21.0928 6.67392 21.0928 8V16C21.0928 17.3261 20.566 18.5979 19.6283 19.5355C18.6906 20.4732 17.4189 21 16.0928 21H8.09277C6.76669 21 5.49492 20.4732 4.55724 19.5355C3.61956 18.5979 3.09277 17.3261 3.09277 16Z" stroke="#725A58" stroke-width="1.5"/>
<path d="M17.5928 6.50905L17.6028 6.49805" stroke="#725A58" stroke-width="1.5" stroke-linecap="round" stroke-linejoin="round"/>
</svg>
