<svg width="15" height="19" viewBox="0 0 15 19" fill="none" xmlns="http://www.w3.org/2000/svg">
<path d="M13.2603 9.5C12.5402 8.9208 11.6247 8.61336 10.6853 8.63524H4.64691C4.37159 8.64191 4.09771 8.59521 3.84164 8.49793C3.58558 8.40065 3.3526 8.2548 3.15666 8.0691C2.96072 7.8834 2.80585 7.66168 2.70131 7.4172C2.59678 7.17273 2.54473 6.91052 2.54828 6.64629C2.54157 6.54345 2.54157 6.4403 2.54828 6.33745C2.62946 5.8653 2.88749 5.43782 3.27391 5.13529C3.66032 4.83276 4.14855 4.67599 4.64691 4.69441H10.5952C11.0804 4.694 11.55 4.85897 11.9202 5.1599C12.2904 5.46083 12.5372 5.87815 12.6166 6.33745H14.5478C14.467 5.3849 14.0155 4.49642 13.2832 3.84866C12.5508 3.2009 11.5912 2.8413 10.5952 2.84135H8.56093V0H6.95155V2.84135H4.64691C3.65087 2.8413 2.69129 3.2009 1.95894 3.84866C1.2266 4.49642 0.775117 5.3849 0.69427 6.33745C0.687847 6.44031 0.687847 6.54344 0.69427 6.64629C0.69427 7.14434 0.796508 7.63752 0.995147 8.09765C1.19379 8.55779 1.48494 8.97588 1.85197 9.32806C2.59324 10.0393 3.59861 10.4389 4.64691 10.4389H10.7497C11.0228 10.4323 11.2946 10.4782 11.5489 10.574C11.8033 10.6697 12.0351 10.8134 12.2306 10.9964C12.4262 11.1795 12.5816 11.3983 12.6877 11.6398C12.7938 11.8814 12.8484 12.141 12.8483 12.4031C12.8617 12.5428 12.8617 12.6834 12.8483 12.8231C12.7461 13.2578 12.4929 13.6462 12.1302 13.9246C11.7676 14.2029 11.3171 14.3547 10.8527 14.355H4.80141C4.33701 14.3547 3.8865 14.2029 3.52387 13.9246C3.16123 13.6462 2.90801 13.2578 2.80578 12.8231H0.861646C0.972291 13.7513 1.43497 14.608 2.16153 15.23C2.88809 15.852 3.82773 16.1957 4.80141 16.1957H6.95155V19H8.56093V16.1957H10.7497C11.7234 16.1957 12.663 15.852 13.3896 15.23C14.1161 14.608 14.5788 13.7513 14.6895 12.8231V12.4031C14.6879 11.8482 14.5591 11.3005 14.3121 10.7987C14.0651 10.297 13.706 9.8536 13.2603 9.5Z" fill="#B99692"/>
</svg>
