<svg width="20" height="22" viewBox="0 0 20 22" fill="none" xmlns="http://www.w3.org/2000/svg">
<path d="M10 12L13 14M10 12C5.52052 14.7458 2.88172 13.7808 1 12.8508C1 14.9297 1.68122 16.6692 2.69609 18M10 12L13 7.41396M13 14C12.781 16.0373 11.4267 20.1851 8.1556 21C6.34064 21 4.16762 19.9296 2.69609 18M13 14L15.5978 9M15.5978 9L18.876 2.69028C19.1655 2.1134 18.9308 1.41193 18.3519 1.12349C17.7937 0.845357 17.1147 1.05196 16.8076 1.59338L13 7.41396M15.5978 9L13 7.41396M2.69609 18C3.73446 18.1667 6.28008 18.2 8.1556 17" stroke="#B99692" stroke-width="1.5" stroke-linecap="round" stroke-linejoin="round"/>
</svg>
