<svg width="33" height="24" viewBox="0 0 33 24" fill="none" xmlns="http://www.w3.org/2000/svg">
<path d="M9.38889 0L10.5444 1.86667C8.41111 3.28889 6.51481 4.94815 4.85556 6.84444C3.25556 8.74074 2.45556 11.0815 2.45556 13.8667C2.45556 14.9333 2.6037 15.9407 2.9 16.8889C3.1963 17.837 3.61111 18.1926 4.14444 17.9556C4.26296 17.8963 4.32222 17.8074 4.32222 17.6889C4.32222 17.5111 4.26296 17.3037 4.14444 17.0667C4.02593 16.7704 3.96667 16.4148 3.96667 16C3.96667 15.1704 4.38148 14.4296 5.21111 13.7778C6.1 13.0667 7.07778 12.7111 8.14444 12.7111C9.68518 12.7111 10.9296 13.2148 11.8778 14.2222C12.8852 15.1704 13.3889 16.4148 13.3889 17.9556C13.3889 19.6741 12.8556 21.0667 11.7889 22.1333C10.7222 23.2 9.32963 23.7333 7.61111 23.7333C5.47778 23.7333 3.75926 22.8741 2.45556 21.1556C1.15185 19.3778 0.5 17.0074 0.5 14.0444C0.5 10.4296 1.32963 7.61481 2.98889 5.6C4.70741 3.52593 6.84074 1.65926 9.38889 0ZM28.5 0L29.6556 1.86667C27.5222 3.28889 25.6259 4.94815 23.9667 6.84444C22.3667 8.74074 21.5667 11.0815 21.5667 13.8667C21.5667 14.9333 21.7148 15.9407 22.0111 16.8889C22.3074 17.837 22.7222 18.1926 23.2556 17.9556C23.3741 17.8963 23.4333 17.8074 23.4333 17.6889C23.4333 17.5111 23.3741 17.3037 23.2556 17.0667C23.137 16.7704 23.0778 16.4148 23.0778 16C23.0778 15.1704 23.4926 14.4296 24.3222 13.7778C25.2111 13.0667 26.1889 12.7111 27.2556 12.7111C28.7963 12.7111 30.0407 13.2148 30.9889 14.2222C31.9963 15.1704 32.5 16.4148 32.5 17.9556C32.5 19.6741 31.9667 21.0667 30.9 22.1333C29.8333 23.2 28.4407 23.7333 26.7222 23.7333C24.5889 23.7333 22.8704 22.8741 21.5667 21.1556C20.263 19.3778 19.6111 17.0074 19.6111 14.0444C19.6111 10.4296 20.4407 7.61481 22.1 5.6C23.8185 3.52593 25.9519 1.65926 28.5 0Z" fill="#E3B6B1"/>
</svg>
