<svg width="126" height="120" viewBox="0 0 126 120" fill="none" xmlns="http://www.w3.org/2000/svg">
<path d="M48.2635 42.7539C46.2095 42.7539 44.1738 42.6133 42.2703 42.0528C35.4146 40.0272 30.4333 33.9646 28.8663 27.1118C27.2992 20.2278 29.0927 12.6896 33.9171 7.47556C38.3802 2.65423 43.6682 1.65518 49.8818 1.65518C49.9458 1.65518 50.0554 1.65969 50.1961 1.66549C50.2715 1.66859 50.3557 1.67207 50.4467 1.67541C50.7062 1.68494 51.0176 1.69328 51.3231 1.68838C51.6282 1.68348 51.9296 1.66536 52.1685 1.62139C52.2878 1.59942 52.3938 1.57061 52.4776 1.53256C52.5602 1.495 52.6285 1.44518 52.6614 1.37685L52.6617 1.3763C52.6673 1.36426 52.6689 1.35029 52.6651 1.33649C52.6617 1.32384 52.6547 1.3148 52.649 1.30906C52.6384 1.2983 52.6249 1.29151 52.6146 1.28709C52.5926 1.27763 52.5617 1.26939 52.5258 1.26184C52.453 1.24649 52.3474 1.23148 52.2211 1.21698C51.968 1.18791 51.6258 1.16026 51.2818 1.13632C50.5948 1.0885 49.8956 1.05514 49.8818 1.05514C49.3684 1.05514 48.8544 1.05264 48.3403 1.05013C42.8109 1.02324 37.2654 0.996258 32.3693 4.0787L32.3693 4.07871C24.7395 8.88843 21.3264 18.4663 23.3074 27.1262C25.1398 35.1685 31.5147 41.6311 39.7563 42.8768C43.2753 43.4084 46.9496 43.3297 50.5612 43.2522C51.8381 43.2249 53.1071 43.1977 54.3587 43.1977C54.4228 43.1977 54.5324 43.2022 54.6731 43.208C54.7485 43.2111 54.8327 43.2146 54.9237 43.2179C55.1832 43.2275 55.4945 43.2358 55.8 43.2309C56.1051 43.226 56.4065 43.2079 56.6454 43.1639C56.7647 43.1419 56.8707 43.1131 56.9545 43.0751C57.0316 43.04 57.0962 42.9943 57.1313 42.9328L57.1386 42.9344C57.1435 42.924 57.1453 42.9122 57.1433 42.9003V42.8977L57.1428 42.8975C57.1426 42.8966 57.1423 42.8956 57.142 42.8946C57.1386 42.882 57.1316 42.8729 57.126 42.8672C57.1154 42.8564 57.1019 42.8496 57.0916 42.8452C57.0695 42.8358 57.0386 42.8275 57.0028 42.82C56.9299 42.8046 56.8244 42.7896 56.6981 42.7751C56.445 42.746 56.1027 42.7184 55.7588 42.6945C55.0717 42.6466 54.3725 42.6133 54.3587 42.6133C53.384 42.6133 52.3846 42.6477 51.3754 42.6825L51.3419 42.6836C50.3211 42.7188 49.2904 42.7539 48.2635 42.7539Z" fill="#191919" stroke="#191919" stroke-width="0.1"/>
<path d="M67.0189 84.7265V1.31644C67.0189 1.28919 67.0065 1.26679 66.9911 1.24996C66.9761 1.23355 66.9562 1.22013 66.9347 1.20878C66.8917 1.18606 66.8317 1.16631 66.7597 1.14858C66.6148 1.11292 66.4087 1.08255 66.1611 1.05649C65.6651 1.00429 64.9942 0.968601 64.2927 0.944175C62.8893 0.895311 61.3592 0.891406 60.8512 0.891406C60.5291 0.891406 59.8438 0.920801 59.2389 0.978554C58.9366 1.00741 58.6527 1.04351 58.4436 1.08693C58.3395 1.10855 58.2514 1.1325 58.1883 1.15935C58.1569 1.17268 58.1288 1.18794 58.1077 1.20605C58.087 1.22386 58.0666 1.25021 58.0666 1.28518C58.0666 1.30863 58.0788 1.3258 58.0897 1.33625C58.1004 1.34646 58.1135 1.35383 58.1257 1.35939C58.1504 1.37063 58.1835 1.37976 58.2214 1.38763C58.2981 1.40354 58.4066 1.41658 58.5367 1.42743C58.7975 1.44917 59.152 1.46262 59.5287 1.47093C60.1771 1.48522 60.8942 1.48433 61.318 1.4838C61.3658 1.48374 61.4099 1.48368 61.4497 1.48365V84.7265H59.6792C59.6152 84.7265 59.5055 84.722 59.3648 84.7162C59.2895 84.7131 59.2052 84.7096 59.1143 84.7063C58.8548 84.6967 58.5434 84.6884 58.2379 84.6933C57.9328 84.6982 57.6314 84.7163 57.3925 84.7603C57.2732 84.7822 57.1672 84.8111 57.0835 84.8491C57.0008 84.8867 56.9325 84.9365 56.8996 85.0048H56.8996L56.8993 85.0054C56.8937 85.0174 56.8921 85.0314 56.8959 85.0452C56.8993 85.0578 56.9063 85.0669 56.912 85.0726C56.9226 85.0834 56.9361 85.0902 56.9464 85.0946C56.9684 85.104 56.9994 85.1123 57.0352 85.1198C57.108 85.1352 57.2136 85.1502 57.3399 85.1647C57.593 85.1938 57.9352 85.2214 58.2792 85.2454C58.9662 85.2932 59.6654 85.3265 59.6792 85.3265H73.8601C74.8645 85.3265 75.8875 85.347 76.9201 85.3676C80.5801 85.4408 84.3612 85.5164 87.8649 84.6923L87.8535 84.6437L87.865 84.6923C96.934 82.5494 102.041 74.7949 102.902 66.4989C103.764 58.2035 100.38 49.3547 92.456 45.0184L92.4543 45.0175L92.4403 45.0106C92.4401 45.0104 92.4398 45.0103 92.4395 45.0101C89.6182 43.4664 86.5282 42.8679 83.3721 42.6548C81.1843 42.507 78.9613 42.5444 76.7735 42.5812C75.8065 42.5975 74.8464 42.6136 73.8992 42.6136C73.8351 42.6136 73.7255 42.6091 73.5847 42.6033C73.5094 42.6002 73.4251 42.5967 73.3342 42.5934C73.0747 42.5839 72.7634 42.5755 72.4578 42.5804C72.1528 42.5853 71.8513 42.6034 71.6125 42.6474C71.4931 42.6694 71.3872 42.6982 71.3034 42.7362C71.2207 42.7738 71.1524 42.8236 71.1195 42.8919L71.1193 42.8925C71.1136 42.9045 71.1121 42.9185 71.1158 42.9323C71.1193 42.945 71.1263 42.954 71.1319 42.9597C71.1425 42.9705 71.156 42.9773 71.1663 42.9817C71.1883 42.9912 71.2193 42.9994 71.2551 43.007C71.3279 43.0223 71.4335 43.0373 71.5598 43.0518C71.8129 43.0809 72.1552 43.1085 72.4991 43.1325C73.1861 43.1803 73.8854 43.2137 73.8992 43.2137C74.6848 43.2137 75.4849 43.1861 76.2884 43.1585C76.6963 43.1445 77.105 43.1304 77.5131 43.1199C78.7264 43.0886 79.9368 43.0887 81.1133 43.2134C85.7768 43.7117 90.133 46.6402 92.9865 50.2577C99.0432 57.9514 99.1525 69.443 93.2904 77.2772C90.4601 81.0587 85.9869 84.2285 81.1759 84.7268C79.8939 84.857 78.5587 84.8131 77.2361 84.7696C76.579 84.748 75.925 84.7265 75.2821 84.7265H67.0189Z" fill="#191919" stroke="#191919" stroke-width="0.1"/>
<path d="M120.913 111.727L123.14 106.395C123.46 105.614 123.62 105.18 123.62 105.094C123.62 104.704 123.187 104.5 122.319 104.485V103.946H125.694V104.485C125.171 104.508 124.788 104.649 124.546 104.907C124.304 105.157 124.003 105.715 123.644 106.583L119.366 116.907C118.96 117.891 118.601 118.559 118.288 118.911C117.976 119.27 117.632 119.45 117.257 119.45C116.749 119.45 116.495 119.219 116.495 118.758C116.495 118.227 116.901 117.778 117.714 117.411C118.19 117.2 118.507 117.02 118.663 116.872C118.827 116.723 118.987 116.454 119.144 116.063L120.058 113.778L116.448 106.043C116.128 105.364 115.862 104.934 115.651 104.754C115.44 104.575 115.081 104.485 114.573 104.485V103.946H118.979V104.485C118.206 104.508 117.819 104.668 117.819 104.965C117.819 105.083 117.972 105.465 118.276 106.114L120.913 111.727Z" fill="#191919"/>
<path d="M114.269 104.485H111.374V110.286C111.374 111.176 111.413 111.778 111.491 112.09C111.569 112.395 111.733 112.641 111.983 112.829C112.241 113.016 112.515 113.11 112.804 113.11C113.366 113.11 113.854 112.79 114.269 112.149L114.644 112.372C114.401 112.887 114.042 113.278 113.565 113.543C113.097 113.801 112.62 113.93 112.136 113.93C111.573 113.93 111.077 113.766 110.647 113.438C110.226 113.102 109.96 112.711 109.851 112.266C109.749 111.821 109.698 111.04 109.698 109.922V104.485H108.304V103.946C108.944 103.93 109.519 103.661 110.026 103.137C110.534 102.614 110.858 101.879 110.999 100.934H111.374V103.946H114.269V104.485Z" fill="#191919"/>
<path d="M105.597 103.946V110.239C105.597 111.286 105.612 111.942 105.644 112.208C105.675 112.473 105.788 112.672 105.983 112.805C106.187 112.938 106.546 113.004 107.062 113.004V113.543C105.874 113.559 105.007 113.684 104.46 113.918H104.319C104.069 113.489 103.937 112.747 103.921 111.692C103.444 112.434 102.897 112.993 102.28 113.368C101.671 113.743 100.995 113.93 100.253 113.93C99.6123 113.93 99.0459 113.786 98.5537 113.497C98.0615 113.2 97.7217 112.84 97.5342 112.418C97.3545 111.997 97.2646 111.36 97.2646 110.508V107.239C97.2646 106.129 97.2451 105.454 97.2061 105.211C97.167 104.961 97.042 104.778 96.8311 104.661C96.6279 104.543 96.249 104.485 95.6943 104.485V103.946H98.9521V110.602C98.9521 111.258 98.9912 111.735 99.0693 112.032C99.1475 112.329 99.3467 112.59 99.667 112.817C99.9873 113.036 100.358 113.145 100.78 113.145C101.382 113.145 101.956 112.95 102.503 112.559C103.05 112.161 103.421 111.743 103.616 111.305C103.819 110.86 103.921 110.227 103.921 109.407V107.239C103.921 106.192 103.909 105.555 103.886 105.329C103.862 105.102 103.761 104.907 103.581 104.743C103.409 104.571 103.046 104.485 102.491 104.485H102.245V103.946H105.597Z" fill="#191919"/>
<path d="M94.4873 111.786H94.9209C94.8506 113.122 94.1943 113.79 92.9521 113.79C92.4209 113.79 91.999 113.649 91.6865 113.368C91.3818 113.086 91.1826 112.668 91.0889 112.114C90.3076 112.668 89.5928 113.086 88.9443 113.368C88.3037 113.649 87.7295 113.79 87.2217 113.79C86.5732 113.79 86.0146 113.602 85.5459 113.227C85.0771 112.852 84.8428 112.356 84.8428 111.739C84.8428 110.934 85.2334 110.231 86.0146 109.629C86.8037 109.028 87.8896 108.442 89.2725 107.872L91.0889 107.133V106.665C91.0889 106 91.0459 105.52 90.96 105.223C90.874 104.926 90.6514 104.661 90.292 104.426C89.9326 104.192 89.46 104.075 88.874 104.075C87.7021 104.075 87.0498 104.465 86.917 105.247C86.792 106.043 86.4639 106.442 85.9326 106.442C85.4561 106.442 85.2178 106.215 85.2178 105.762C85.2178 105.317 85.5342 104.84 86.167 104.333C86.7998 103.817 87.7842 103.559 89.1201 103.559C90.1123 103.559 90.8818 103.715 91.4287 104.028C91.9756 104.34 92.335 104.696 92.5068 105.094C92.6865 105.493 92.7764 106.102 92.7764 106.922V110.801C92.7764 111.708 92.8232 112.29 92.917 112.547C93.0107 112.805 93.2139 112.934 93.5264 112.934C94.042 112.934 94.3623 112.551 94.4873 111.786ZM91.0889 107.684L89.8115 108.2C87.7959 109.02 86.7881 110.051 86.7881 111.293C86.7881 111.786 86.917 112.184 87.1748 112.489C87.4326 112.786 87.7686 112.934 88.1826 112.934C88.5498 112.934 88.9756 112.813 89.46 112.571C89.9443 112.329 90.4873 111.965 91.0889 111.481V107.684Z" fill="#191919"/>
<path d="M83.0029 107.192H76.3115C76.2803 107.653 76.2646 107.997 76.2646 108.223C76.2646 109.911 76.5264 111.18 77.0498 112.032C77.5811 112.875 78.3701 113.297 79.417 113.297C80.8389 113.297 81.8467 112.661 82.4404 111.387H83.0029C82.7529 112.184 82.2568 112.809 81.5146 113.262C80.7725 113.708 79.9639 113.93 79.0889 113.93C78.2764 113.93 77.5068 113.727 76.7803 113.321C76.0615 112.907 75.4717 112.325 75.0107 111.575C74.5498 110.825 74.3193 109.915 74.3193 108.844C74.3193 107.329 74.7646 106.071 75.6553 105.071C76.5459 104.063 77.6592 103.559 78.9951 103.559C80.2529 103.559 81.2256 103.942 81.9131 104.708C82.6006 105.473 82.9639 106.301 83.0029 107.192ZM80.9521 106.723C80.9756 106.543 80.9873 106.383 80.9873 106.243C80.9873 105.555 80.7842 105.024 80.3779 104.649C79.9795 104.266 79.4873 104.075 78.9014 104.075C77.4795 104.075 76.6318 104.958 76.3584 106.723H80.9521Z" fill="#191919"/>
<path d="M67.0068 104.989C68.8115 105.122 70.1514 105.571 71.0264 106.336C71.9014 107.102 72.3389 108.059 72.3389 109.208C72.3389 110.208 72.042 111.071 71.4482 111.797C70.8545 112.516 70.0928 112.989 69.1631 113.215C68.2412 113.434 67.0029 113.543 65.4482 113.543H59.2139V113.004H59.8232C60.5029 113.004 60.9717 112.918 61.2295 112.747C61.4951 112.575 61.6631 112.309 61.7334 111.95C61.8037 111.583 61.8389 110.735 61.8389 109.407V101.672C61.8389 100.383 61.7998 99.5513 61.7217 99.1763C61.6514 98.8013 61.4951 98.5435 61.2529 98.4028C61.0186 98.2622 60.499 98.1919 59.6943 98.1919H59.3896V97.6528L62.0029 97.5825L64.9795 97.4888C69.3232 97.4888 71.4951 98.7388 71.4951 101.239C71.4951 102.27 71.1201 103.098 70.3701 103.723C69.6279 104.348 68.5068 104.77 67.0068 104.989ZM64.1357 104.766C64.3311 104.774 64.4951 104.778 64.6279 104.778C66.3154 104.778 67.4678 104.512 68.085 103.981C68.7021 103.45 69.0107 102.59 69.0107 101.403C69.0107 100.575 68.8896 99.9341 68.6475 99.481C68.4053 99.0278 68.042 98.6802 67.5576 98.438C67.0732 98.188 66.2451 98.063 65.0732 98.063C64.7686 98.063 64.4561 98.0747 64.1357 98.0981V104.766ZM64.1357 105.34V108.879C64.1357 110.387 64.1631 111.344 64.2178 111.75C64.2725 112.157 64.417 112.465 64.6514 112.676C64.8936 112.887 65.3662 112.993 66.0693 112.993C67.3193 112.993 68.2568 112.672 68.8818 112.032C69.5068 111.391 69.8193 110.43 69.8193 109.149C69.8193 107.836 69.4639 106.872 68.7529 106.254C68.0498 105.629 66.8076 105.317 65.0264 105.317C64.7451 105.317 64.4482 105.325 64.1357 105.34Z" fill="#191919"/>
<path d="M51.9717 111.786H52.4053C52.335 113.122 51.6787 113.79 50.4365 113.79C49.9053 113.79 49.4834 113.649 49.1709 113.368C48.8662 113.086 48.667 112.668 48.5732 112.114C47.792 112.668 47.0771 113.086 46.4287 113.368C45.7881 113.649 45.2139 113.79 44.7061 113.79C44.0576 113.79 43.499 113.602 43.0303 113.227C42.5615 112.852 42.3271 112.356 42.3271 111.739C42.3271 110.934 42.7178 110.231 43.499 109.629C44.2881 109.028 45.374 108.442 46.7568 107.872L48.5732 107.133V106.665C48.5732 106 48.5303 105.52 48.4443 105.223C48.3584 104.926 48.1357 104.661 47.7764 104.426C47.417 104.192 46.9443 104.075 46.3584 104.075C45.1865 104.075 44.5342 104.465 44.4014 105.247C44.2764 106.043 43.9482 106.442 43.417 106.442C42.9404 106.442 42.7021 106.215 42.7021 105.762C42.7021 105.317 43.0186 104.84 43.6514 104.333C44.2842 103.817 45.2686 103.559 46.6045 103.559C47.5967 103.559 48.3662 103.715 48.9131 104.028C49.46 104.34 49.8193 104.696 49.9912 105.094C50.1709 105.493 50.2607 106.102 50.2607 106.922V110.801C50.2607 111.708 50.3076 112.29 50.4014 112.547C50.4951 112.805 50.6982 112.934 51.0107 112.934C51.5264 112.934 51.8467 112.551 51.9717 111.786ZM48.5732 107.684L47.2959 108.2C45.2803 109.02 44.2725 110.051 44.2725 111.293C44.2725 111.786 44.4014 112.184 44.6592 112.489C44.917 112.786 45.2529 112.934 45.667 112.934C46.0342 112.934 46.46 112.813 46.9443 112.571C47.4287 112.329 47.9717 111.965 48.5732 111.481V107.684Z" fill="#191919"/>
<path d="M39.3154 97.4302V110.25C39.3154 111.274 39.3271 111.918 39.3506 112.184C39.3818 112.45 39.4951 112.653 39.6904 112.793C39.8857 112.934 40.2334 113.004 40.7334 113.004H41.0146V113.543H35.8818V113.004H36.21C36.6787 113.004 37.0107 112.942 37.2061 112.817C37.4092 112.684 37.5303 112.5 37.5693 112.266C37.6084 112.032 37.6279 111.36 37.6279 110.25V100.758C37.6279 99.7505 37.5381 99.1177 37.3584 98.8599C37.1787 98.5942 36.7412 98.4614 36.0459 98.4614V97.9224C36.5225 97.9224 37.0811 97.8677 37.7217 97.7583C38.3701 97.6489 38.8154 97.5396 39.0576 97.4302H39.3154Z" fill="#191919"/>
<path d="M31.3584 106.008C31.624 105.313 32.0537 104.731 32.6475 104.262C33.249 103.793 33.835 103.559 34.4053 103.559C34.9209 103.559 35.3271 103.719 35.624 104.04C35.9209 104.36 36.0693 104.688 36.0693 105.024C36.0693 105.25 35.9912 105.446 35.835 105.61C35.6865 105.774 35.5029 105.856 35.2842 105.856C34.8936 105.856 34.5967 105.567 34.3936 104.989C34.2529 104.598 34.042 104.403 33.7607 104.403C33.4248 104.403 33.0225 104.633 32.5537 105.094C32.085 105.547 31.7842 106.02 31.6514 106.512C31.5186 107.004 31.4521 107.68 31.4521 108.54V110.25C31.4521 111.274 31.4639 111.918 31.4873 112.184C31.5186 112.45 31.6318 112.653 31.8271 112.793C32.0225 112.934 32.3701 113.004 32.8701 113.004H33.1982V113.543H28.1006V113.004H28.3467C28.8154 113.004 29.1475 112.942 29.3428 112.817C29.5459 112.684 29.667 112.5 29.7061 112.266C29.7451 112.032 29.7646 111.36 29.7646 110.25V107.543C29.7646 106.512 29.749 105.868 29.7178 105.61C29.6943 105.344 29.585 105.141 29.3896 105C29.1943 104.852 28.8467 104.778 28.3467 104.778H28.1006V104.25C28.835 104.165 29.7959 103.934 30.9834 103.559C31.21 104.176 31.335 104.993 31.3584 106.008Z" fill="#191919"/>
<path d="M26.6826 111.786H27.1162C27.0459 113.122 26.3896 113.79 25.1475 113.79C24.6162 113.79 24.1943 113.649 23.8818 113.368C23.5771 113.086 23.3779 112.668 23.2842 112.114C22.5029 112.668 21.7881 113.086 21.1396 113.368C20.499 113.649 19.9248 113.79 19.417 113.79C18.7686 113.79 18.21 113.602 17.7412 113.227C17.2725 112.852 17.0381 112.356 17.0381 111.739C17.0381 110.934 17.4287 110.231 18.21 109.629C18.999 109.028 20.085 108.442 21.4678 107.872L23.2842 107.133V106.665C23.2842 106 23.2412 105.52 23.1553 105.223C23.0693 104.926 22.8467 104.661 22.4873 104.426C22.1279 104.192 21.6553 104.075 21.0693 104.075C19.8975 104.075 19.2451 104.465 19.1123 105.247C18.9873 106.043 18.6592 106.442 18.1279 106.442C17.6514 106.442 17.4131 106.215 17.4131 105.762C17.4131 105.317 17.7295 104.84 18.3623 104.333C18.9951 103.817 19.9795 103.559 21.3154 103.559C22.3076 103.559 23.0771 103.715 23.624 104.028C24.1709 104.34 24.5303 104.696 24.7021 105.094C24.8818 105.493 24.9717 106.102 24.9717 106.922V110.801C24.9717 111.708 25.0186 112.29 25.1123 112.547C25.2061 112.805 25.4092 112.934 25.7217 112.934C26.2373 112.934 26.5576 112.551 26.6826 111.786ZM23.2842 107.684L22.0068 108.2C19.9912 109.02 18.9834 110.051 18.9834 111.293C18.9834 111.786 19.1123 112.184 19.3701 112.489C19.6279 112.786 19.9639 112.934 20.3779 112.934C20.7451 112.934 21.1709 112.813 21.6553 112.571C22.1396 112.329 22.6826 111.965 23.2842 111.481V107.684Z" fill="#191919"/>
<path d="M14.0264 107.579H14.5303V113.145H14.0264C13.8857 112.512 13.6318 111.954 13.2646 111.469C11.8662 113.047 10.0811 113.836 7.90918 113.836C5.6123 113.836 3.7334 113.11 2.27246 111.657C0.819336 110.204 0.0927734 108.282 0.0927734 105.891C0.0927734 104.321 0.428711 102.844 1.10059 101.461C1.77246 100.071 2.70996 99.0396 3.91309 98.3677C5.11621 97.6958 6.43652 97.3599 7.87402 97.3599C9.06152 97.3599 10.1357 97.606 11.0967 98.0981C12.0654 98.5825 12.7881 99.1216 13.2646 99.7153C13.6006 99.0513 13.8037 98.3638 13.874 97.6528H14.3896L14.5303 103.676H14.0264C13.6748 101.536 12.9561 100.047 11.8701 99.2114C10.792 98.3755 9.57324 97.9575 8.21387 97.9575C6.5498 97.9575 5.22559 98.6333 4.24121 99.9849C3.26465 101.336 2.77637 103.27 2.77637 105.786C2.77637 108.168 3.31152 109.997 4.38184 111.27C5.45215 112.536 6.78418 113.168 8.37793 113.168C9.22949 113.168 10.1006 112.961 10.9912 112.547C11.8818 112.133 12.585 111.434 13.1006 110.45C13.624 109.458 13.9326 108.5 14.0264 107.579Z" fill="#191919"/>
</svg>
