<svg width="114" height="121" viewBox="0 0 114 121" fill="none" xmlns="http://www.w3.org/2000/svg">
<path d="M48.9222 60.0759C48.9924 59.9179 45.0788 59.76 45.0437 59.76C39.4629 59.76 33.3029 60.5497 27.88 58.9703C18.1398 56.0921 11.0496 47.4751 8.82082 37.7349C6.59198 27.9597 9.13671 17.2367 15.9987 9.83066C22.3518 2.96867 29.8631 1.54713 38.6907 1.54713C39.2523 1.54713 42.2884 1.79283 42.5692 1.19613C42.6394 1.03818 38.7258 0.845134 38.6907 0.845134C30.1263 0.845134 21.4567 0.353742 13.8927 5.1273C3.09957 11.9366 -1.72665 25.4851 1.08133 37.7349C3.67871 49.1072 12.6993 58.2507 24.3524 60.0057C31.0916 61.0236 38.2519 60.462 45.0437 60.462C45.6053 60.462 48.6414 60.6901 48.9222 60.0934V60.0759Z" fill="black"/>
<path d="M99.0098 63.147C91.0422 58.7771 81.5302 59.7599 72.7553 59.7599C72.1937 59.7599 69.1575 59.5142 68.8767 60.1109C68.8065 60.2689 72.7202 60.4619 72.7553 60.4619C76.1073 60.4619 79.6523 60.1109 82.9868 60.4619C89.6207 61.1639 95.8158 65.3408 99.8698 70.4829C108.469 81.4164 108.627 97.7554 100.309 108.882C96.2896 114.252 89.9366 118.763 83.0746 119.465C80.3543 119.745 77.4411 119.465 74.7033 119.465H63.1555V1.12586C62.9098 0.616914 55.6792 0.599365 54.2402 0.599365C53.3276 0.599365 50.3616 0.757318 50.3616 1.09077C50.3616 1.31891 54.0998 1.30136 55.1528 1.30136V119.482H52.5729C52.0113 119.482 48.9752 119.236 48.6944 119.833C48.6242 119.991 52.5378 120.184 52.5729 120.184H72.6851C79.161 120.184 86.1633 120.781 92.5339 119.289C118.174 113.234 121.439 75.4319 99.0274 63.1646H99.0098V63.147Z" fill="black"/>
</svg>
